<?xml version="1.0" encoding="utf-8"?>
<!-- Generator: Adobe Illustrator 27.0.0, SVG Export Plug-In . SVG Version: 6.00 Build 0)  -->
<svg version="1.1" id="Layer_1" xmlns="http://www.w3.org/2000/svg" xmlns:xlink="http://www.w3.org/1999/xlink" x="0px" y="0px"
	 viewBox="0 0 750 500" style="enable-background:new 0 0 750 500;" xml:space="preserve">
<style type="text/css">
	.st0{fill:#FCF4E1;}
	.st1{fill:none;stroke:#1C2238;stroke-width:0.7618;stroke-linecap:round;stroke-linejoin:round;stroke-miterlimit:10;}
	.st2{fill:#EA5D3B;}
	.st3{fill:#563B32;}
	.st4{fill:#A5B0CB;}
	.st5{fill:#F8BE64;}
	.st6{fill:#14233D;}
	.st7{fill:#D99176;}
	.st8{fill:#28466D;}
	.st9{fill:none;stroke:#FFFFFF;stroke-width:1.9537;stroke-linecap:round;stroke-linejoin:round;stroke-miterlimit:10;}
	.st10{fill:none;stroke:#000000;stroke-width:0.9769;stroke-miterlimit:10;}
	.st11{fill:#1C2238;}
	.st12{fill:none;stroke:#1C2238;stroke-width:0.7084;stroke-linecap:round;stroke-linejoin:round;stroke-miterlimit:10;}
	.st13{fill:#FFFFFF;}
	.st14{fill:none;stroke:#1C2238;stroke-width:0.9217;stroke-linecap:round;stroke-linejoin:round;stroke-miterlimit:10;}
</style>
<g id="OBJECTS">
	<g>
		<path class="st0" d="M495.4,354.6c-2.4-7.4,1.2-14.1,8.5-16.5c7.4-2.4,15.7,0.4,18.1,7.8s-1.6,15.3-9,17.7
			C505.7,366,497.8,362,495.4,354.6z"/>
		<path class="st0" d="M477.2,112.1c-1.4-4.2,0.7-8,4.8-9.3c4.2-1.4,8.9,0.2,10.2,4.4s-0.9,8.6-5.1,10
			C483,118.5,478.6,116.2,477.2,112.1z"/>
		<path class="st0" d="M175.2,65.1c-2.1-6.3,1-12,7.3-14.1c6.3-2.1,13.4,0.4,15.4,6.6c2.1,6.3-1.4,13-7.6,15.1
			C184,74.7,177.3,71.3,175.2,65.1z"/>
		<path class="st0" d="M513.6,274.7c0.9-20.8,0.7-60.4-24.5-93.5c-25.2-33.1-58.3,17.3-82,7.9s-20.1-78.4-84.2-77.7
			c-64,0.7-24.5,79.1-48.2,97.9s-74.1-0.7-87.8,49.6c-13.7,50.4,21.6,101.5,74.8,86.3C315,330.1,507.9,413.6,513.6,274.7z"/>
	</g>
	<line class="st1" x1="128.8" y1="417" x2="629.2" y2="417"/>
	<g>
		<g>
			<g>
				<g>
					<path class="st2" d="M420.6,83.7l0.3-0.1c1.1-0.3,2.1,0.8,1.6,1.8c0,0,0,0,0,0c-0.2,0.4-0.4,0.7-0.4,1.1c0,0.4,0.3,0.7,0.5,0.9
						c-0.2,0.2-0.6,0.3-0.9,0.3c-0.3,0-0.6-0.2-0.9-0.4c-0.6-0.4-1-0.9-1.2-1.6c-0.1-0.4-0.1-0.8,0-1.2
						C419.9,84.2,420.2,83.9,420.6,83.7z"/>
				</g>
				<g>
					<path class="st3" d="M424.8,86.9c0.5,0,1.1,0,1.6,0.1s1.1,0.3,1.5,0.7c-1.7,0.1-3.5,0.2-5.2,0.3l-0.9-0.6
						C422.8,87,423.8,87,424.8,86.9z"/>
				</g>
				<g>
					<path class="st3" d="M417.1,87.7c0.1-0.1,0.3-0.1,0.4-0.2c1.4-0.4,3-0.3,4.4-0.1l0.2,0c1.5-0.4,3.2,0.1,4.4,1.1
						c-1.7,0.2-3.4-0.2-5.1-0.3c-1.5-0.1-3,0.1-4.5-0.1C416.8,87.9,416.9,87.8,417.1,87.7z"/>
				</g>
			</g>
			<g>
				<g>
					<path class="st2" d="M388.5,85.3c0.4,0.9,1.2,1.5,2.1,1.9c0.6,0.3,1.3,0.5,2,0.7c4.1,0.9,8.2,1,12.4,0.7
						c2.7-0.2,5.3-0.5,7.9-0.8c2.6-0.3,5.3-0.2,7.8-1.2c2.5-1,4.7-2.6,6.2-4.8c1.5-2.2,1.8-4.9,2-7.6c0.1-1.1,0.2-2.3,0.3-3.4
						c0.2-1.8,0.5-3.6,0.8-5.3L430,65c0.4-2.2,1.1-4.3,0.9-6.5c-0.2-2.2-1.1-4.5-2.9-5.7c-6.6-4.4-12.1,0.3-12.8,1.2
						c-0.8,1-1.2,2.3-1.3,3.6c-0.1,0.8-0.1,1.6-0.4,2.3c-0.2,0.7-0.7,1.5-1.4,1.8c0.6,0.4,1.5,0.2,1.9-0.4c0,0.6-0.2,1.2-0.7,1.6
						c0.4,0.1,0.9,0,1.3-0.2c0,0.9-0.1,1.7-0.2,2.6c-0.5,4-2.4,7.7-4.2,11.3c-1,2-2,4-3,6c-0.6,1.2-1.2,2.4-2.3,3
						c-1.7,1-3.9,0.3-5.6-0.8c-0.1-0.1-0.2-0.1-0.3-0.2c-0.5-0.4-1-0.8-1.4-1.3c-0.6-0.7-1.2-1.6-2-2.1c-0.4-0.3-0.9-0.5-1.3-0.4
						c-0.4,0.1-0.8,0.4-0.9,0.8c-0.1,0-0.2,0-0.3,0c-0.5-0.3-1.1-0.6-1.7-0.7c-0.7-0.1-1.5,0.2-1.9,0.8c-0.3,0.4-0.3,1-0.1,1.5
						c0,0,0,0,0,0c0,0,0,0.1-0.1,0.1c-0.2,0-0.3,0-0.5,0.1c-0.3,0.2-0.5,0.5-0.6,0.9C388.3,84.6,388.4,84.9,388.5,85.3z"/>
				</g>
				<g>
					<path class="st0" d="M404.9,88.6c2.7-0.2,5.3-0.5,7.9-0.8c2.6-0.3,5.3-0.2,7.8-1.2c2.5-1,4.7-2.6,6.2-4.8
						c1.5-2.2,1.8-4.9,2-7.6c0.1-1.1,0.2-2.3,0.3-3.4c-0.4-0.3-0.8-0.6-1.2-0.7c-1.6-0.6-3.6-0.1-4.6,1.3c-1,1.2-1.1,2.9-1.3,4.4
						c-0.4,3-1.2,6.1-3.6,8c-2.1,1.7-4.9,1.9-7.5,2.4C408.8,86.5,406.5,87.2,404.9,88.6z"/>
				</g>
				<path class="st0" d="M416.3,58c0,0.2,0,0.5,0,0.7c0.3,2.4,2.1,4.3,4,4c1.8-0.3,2.9-2.9,2.7-5.3C422.5,51.6,416.3,52.7,416.3,58z
					"/>
				<g>
					<g>
						<path class="st4" d="M424.6,64.7c0.4,1,1,1.9,1.8,2.4c0.6,0.5,1.4,0.7,2.1,0.7c0.8,0,1.6-0.4,2.2-1.2c0.4-0.5,0.6-1,0.8-1.7
							c-0.4-0.2-0.9-0.2-1.3-0.1c-0.5,0.1-1,0.4-1.5,0.5c-0.8,0.2-1.7,0.1-2.5-0.4c-0.9-0.6-1.5-1.7-1.8-2.9c0,0,0-0.1,0-0.1
							C424.2,62.9,424.3,63.9,424.6,64.7z"/>
					</g>
					<g>
						<g>
							<path class="st3" d="M424.4,62.1c0,0,0,0.1,0,0.1c0.3,1.2,0.9,2.3,1.8,2.9c0.8,0.5,1.7,0.6,2.5,0.4c0.5-0.1,1-0.4,1.5-0.5
								c0.4-0.1,0.9-0.1,1.3,0.1c0.1,0,0.1,0.1,0.2,0.1c0.5,0.3,0.8,1.1,0.6,1.7c1.4-1.3,2.3-3.3,2.5-5.5c0-0.4,0-0.8,0-1.2
								c0-0.3,0-0.5-0.1-0.8c-0.5-3.5-3.3-6.1-6-5.7c-0.9,0.1-1.7,0.4-2.4,1.1c-1,0.9-1.6,2.4-1.9,3.9
								C424.2,59.7,424.2,60.9,424.4,62.1z"/>
						</g>
						<path class="st3" d="M422.5,61.2c0-0.7,0.4-1.3,1-1.6c0,0,0,0,0.1,0c0.1,0,0.1-0.1,0.2-0.1c0,0,0,0,0,0c0.1,0,0.2,0,0.2,0.2
							c0,0.1,0,0.2,0,0.2c0,0.1-0.1,0.2-0.2,0.2c0,0,0,0,0,0c0.1,0.2,0.2,0.4,0.2,0.5c0.1,0.3,0.2,0.5,0.4,0.8
							c0.2,0.3,0.4,0.7,0.6,1c0.4,0.6,0.8,1.1,1.3,1.6c0.1,0.1-0.1,0.4-0.2,0.2c-0.3-0.4-0.6-0.7-0.9-1.1c0,0-0.1,0-0.1-0.1
							c-0.1-0.1-0.2-0.3-0.3-0.4c-0.2-0.3-0.5-0.7-0.7-1c-0.1-0.2-0.3-0.5-0.4-0.7c-0.1-0.1-0.2-0.3-0.2-0.4
							c-0.2,0.3-0.4,0.6-0.5,0.9C422.7,61.4,422.5,61.4,422.5,61.2z"/>
					</g>
				</g>
				<g>
					<g>
						<path class="st0" d="M405.9,80.7c0.2,0.2,0.4,0.4,0.7,0.4c0.6,0.1,1.2-0.1,1.8-0.4c0.1-0.1,0.2,0.1,0.1,0.2
							c-0.3,0.4,0.1,0.9,0.4,1c0.5,0.2,1.1,0.1,1.6,0c1-0.2,2-0.7,2.2-1.7c0.1-0.2,0.3-0.1,0.3,0.1c-0.2,0.8,0.4,1.6,1.1,2
							c0.5,0.2,1,0.3,1.5,0.3c0.8-0.5,1.6-1.1,2.2-1.9c0.8-1,1.4-2.2,1.5-3.4c-0.2,0.2-0.4,0.3-0.6,0.4c-0.5,0.2-1,0.2-1.5,0
							c-0.3-0.2-0.6-0.5-0.8-0.8c-0.4,0.7-1,1.2-1.8,1.5c-0.7,0.3-1.6,0.3-2.2-0.2c-0.2,1-1.4,1.7-2.3,2c-1,0.4-2.3,0.3-2.9-0.7
							c-0.1-0.1-0.2-0.3-0.2-0.4C406.6,79.6,406.3,80.2,405.9,80.7z"/>
					</g>
					<g>
						<path class="st5" d="M407,79c0,0.2,0.1,0.3,0.2,0.4c0.6,1,2,1,2.9,0.7c0.9-0.3,2.1-1,2.3-2c0.5,0.6,1.5,0.5,2.2,0.2
							c0.7-0.3,1.4-0.8,1.8-1.5c0.1,0.4,0.4,0.7,0.8,0.8c0.5,0.2,1,0.2,1.5,0c0.2-0.1,0.4-0.2,0.6-0.4c0-0.2,0-0.3,0-0.5
							c0-0.1,0-0.3,0-0.4c-0.1-2-1.4-3.8-3.3-4.6c-0.9-0.4-1.9-0.5-2.8-0.2c-2,0.6-3,2.5-4,4.1c-0.2,0.3-0.4,0.6-0.6,1
							c-0.1,0.1-0.1,0.2-0.2,0.3c-0.4,0.5-0.7,1.1-1.1,1.6c0,0-0.1,0.1-0.1,0.1v0C407.1,78.8,407,78.9,407,79z"/>
						<path class="st5" d="M403.6,84.8c0.1,0.2,0.3,0.3,0.4,0.3c0,0,0,0,0.1,0c-0.1,0-0.2,0.1-0.2,0.2c-0.2,0.2-0.2,0.5,0,0.7
							c0.2,0.2,0.4,0.1,0.6,0.1c0.6-0.1,1.1-0.3,1.6-0.6c-0.2,0.1-0.1,0.4,0,0.5c0.2,0.1,0.4,0.1,0.6,0c2.4-0.5,4.6-1.6,6.7-2.9
							c-0.1,0.1-0.1,0.3,0.1,0.4c0.2,0.1,0.3,0,0.5,0c0.4-0.1,0.8-0.3,1.2-0.5c0.2-0.1,0.4-0.2,0.5-0.3c-0.5,0.1-1,0-1.5-0.3
							c-0.7-0.4-1.2-1.2-1.1-2c0-0.2-0.2-0.3-0.3-0.1c-0.3,1-1.3,1.5-2.2,1.7c-0.5,0.1-1.1,0.2-1.6,0c-0.4-0.1-0.7-0.6-0.4-1
							c0.1-0.1,0-0.3-0.1-0.2c-0.5,0.2-1.2,0.5-1.8,0.4c-0.3-0.1-0.5-0.2-0.7-0.4c-0.1,0.1-0.1,0.2-0.2,0.3c-0.7,1.1-1.4,2.2-2,3.3
							C403.6,84.5,403.5,84.7,403.6,84.8z"/>
					</g>
				</g>
				<path class="st3" d="M419.1,57.4c0,0,0,0.1,0,0.1c0.1,0.5,0.6,0.9,1.1,0.8c0.5-0.1,0.9-0.6,0.9-1.1
					C420.9,56,419.1,56.2,419.1,57.4z"/>
			</g>
			<g>
				<g>
					<path class="st2" d="M410.7,85.2l0.3-0.1c1.1-0.3,2.1,0.8,1.6,1.8c0,0,0,0,0,0c-0.2,0.4-0.4,0.7-0.4,1.1c0,0.4,0.3,0.7,0.5,0.9
						c-0.2,0.2-0.6,0.3-0.9,0.3s-0.6-0.2-0.9-0.4c-0.6-0.4-1-0.9-1.2-1.6c-0.1-0.4-0.1-0.8,0-1.2C409.9,85.6,410.2,85.3,410.7,85.2z
						"/>
				</g>
				<g>
					<path class="st3" d="M414.9,88.3c0.5,0,1.1,0,1.6,0.1s1.1,0.3,1.5,0.7c-1.7,0.1-3.5,0.2-5.2,0.3l-0.9-0.6
						C412.8,88.4,413.8,88.4,414.9,88.3z"/>
				</g>
				<g>
					<path class="st3" d="M407.1,89.1c0.1-0.1,0.3-0.1,0.4-0.2c1.4-0.4,3-0.3,4.4-0.1l0.2,0c1.5-0.4,3.2,0.1,4.4,1.1
						c-1.7,0.2-3.4-0.2-5.1-0.3c-1.5-0.1-3,0.1-4.5-0.1C406.9,89.3,407,89.2,407.1,89.1z"/>
				</g>
			</g>
		</g>
		<g>
			<g>
				<g>
					<g>
						<g>
							<path class="st6" d="M385.4,426.2l0.5,2.9c0,0-9.5,3.7-12.8,5.7c-3.3,2.1-28.3,15.1-32.7,5.6l31.4-13.5L385.4,426.2z"/>
							<path class="st7" d="M387.9,395.4c0.3,0.8-4.1,19.5-4.1,19.5h-11.2l1.8-21.4L387.9,395.4z"/>
							<path class="st8" d="M383.7,414.9l1.7,11.2l-11.5,4.3c-0.9,0.3-1.7,0.7-2.5,1.2c-4.5,2.6-21.3,11.9-31,8.8
								c0,0-6.7-12.8,11.2-17.3c17.9-4.5,21-8.2,21-8.2L383.7,414.9L383.7,414.9z"/>
						</g>
						<g>
							<g>
								<line class="st9" x1="361.4" y1="424.1" x2="359" y2="420.9"/>
								<line class="st9" x1="364.8" y1="422.8" x2="362.7" y2="419.8"/>
								<line class="st9" x1="368" y1="420.9" x2="366.2" y2="418.5"/>
							</g>
						</g>
					</g>
					<g>
						<path class="st2" d="M388.9,229.8c-10.1,48-22.7,178.1-22.7,178.1l23.6,0.5l31.4-171.9C421.1,236.6,390.6,221.7,388.9,229.8z"
							/>
						<line class="st1" x1="367.3" y1="396.6" x2="391.7" y2="396.6"/>
					</g>
				</g>
				<g>
					<g>
						<path class="st6" d="M463.9,446.5c0,0,2.5,9.2-9.2,10c-10.9,0.7-19,1-17.5-28.5L463.9,446.5z"/>
						<polygon class="st7" points="447.3,387.7 448.6,416.1 437.6,416.5 435.4,383 						"/>
						<path class="st8" d="M448.6,416.1c0,0,14.1,23.4,15.3,30.4c1.2,7-20.5,11.2-24.3,0c-3.8-11.2-2-30-2-30L448.6,416.1z"/>
						<g>
							<g>
								<line class="st9" x1="452.6" y1="431.6" x2="444" y2="432.4"/>
								<line class="st9" x1="451.3" y1="428.1" x2="443.3" y2="428.8"/>
								<line class="st9" x1="449.6" y1="424.6" x2="442.6" y2="425.2"/>
							</g>
						</g>
					</g>
					<g>
						<path class="st2" d="M443.7,229.8c7.3,56.2,10.4,178.1,10.4,178.1l-25.5,0.5L409.9,240C409.9,240,442.6,221.5,443.7,229.8z"/>
						<line class="st1" x1="416.7" y1="276.9" x2="403.3" y2="274"/>
						<line class="st1" x1="427.3" y1="396.6" x2="453.8" y2="396.6"/>
					</g>
				</g>
			</g>
			<g>
				<g>
					<g>
						<path class="st7" d="M454.8,169.3l21.8,21.1c3.6,4.1,3.2,10.3-0.8,13.9l0,0c-4,3.6-9.9,4.3-13.6,0.3l-22.6-19.9L454.8,169.3z"
							/>
						<g>
							<g>
								<path class="st7" d="M496.1,157l-34,35.5c-3.5,3.9-2.9,9.9,1.2,13.2l0,0c4.3,3.4,10.6,2.2,13.4-2.5l28-40.8L496.1,157z"/>
								<path class="st7" d="M496.1,157c0,0-1.4-4.8,2.3-15.5c0.2-0.7,0.8-1.1,1.6-1.2l0,0c1-0.1,1.9,0.8,1.8,1.8l-0.3,4.9l3.3,15.1
									L496.1,157z"/>
								<path class="st7" d="M501.5,147.1l6.2-14.4c0.3-0.6,1-1.3,1.8-1l0,0c0.9,0.3,1.3,1.1,1.1,1.8l-3.8,10.4l6.8-11.3
									c0.3-0.5,1-0.7,1.6-0.4l0,0c0.6,0.3,0.8,1,0.5,1.5l-5.9,12.8l6.9-9.7c0.4-0.5,1.1-0.7,1.7-0.4l0,0c0.7,0.3,1,1.2,0.6,1.8
									l-6.1,11.2l8.2-5.2c0.7-0.4,1.5,0,1.8,0.6l0,0c0.2,0.5,0,1.1-0.4,1.5l-8,7.1c0,0-2.5,5.4-9.7,8.7l-5.9-7.7L501.5,147.1z"/>
							</g>
							<line class="st1" x1="470.1" y1="184.1" x2="465" y2="189.4"/>
						</g>
					</g>
					<path class="st6" d="M429.8,146.3c20,3,35.2,26.1,35.2,26.1l-19.2,22.9l-14.4-24.4L429.8,146.3z"/>
				</g>
				<g>
					<g>
						<path class="st7" d="M389.4,188.6L368,274l-8.7-1.6c0,0,5.3-53.3,14-89.3L389.4,188.6z"/>
						<path class="st7" d="M359.7,269.6c0,0-15.3,23.7,0.4,32.4c1,0.6,2.4,0.2,3.3-0.9l0.1-0.1c1-1.2,1-2.9,0.1-3.9
							c-2.1-2.4-4.9-7.6,0.6-15.2c0,0,2.6,0.5,1.7,6.4c-0.2,1.5,0.8,2.7,2.1,2.4l0,0c0.9-0.2,1.7-1,2-2c1.1-3.9,3.2-13.5-1.9-18.2
							L359.7,269.6z"/>
					</g>
					<path class="st6" d="M393.7,150.3c0,0-15.6,3.6-25.6,34.8l25,14.6l5.9-20.8L393.7,150.3z"/>
				</g>
				<g>
					<path class="st6" d="M429.8,146.3l11.8,4.5c3.1,1.1,5.8,9.6,5,12.8l2.8,86.9c-21.3,17.3-66.9,2.9-66.9,2.9l6.6-94
						c-0.5-2.2,0.7-7.5,2.8-8.4l15.9-6.3L429.8,146.3z"/>
					<line class="st10" x1="386.5" y1="196.4" x2="388.3" y2="170.8"/>
					<line class="st10" x1="447.6" y1="193.2" x2="447.4" y2="168.1"/>
				</g>
			</g>
			<g>
				<g>
					<g>
						<path class="st7" d="M424.7,147.7l-1.1-19.7c0,0-3.1,2.2-5.9,2.7s-5.5-1.1-5.6-1.1c0,0-3.3-1.9-3.3-1.9l-1.1,18.4
							c0,0.2-0.2,1.9-0.2,2.1l17.1,0.1C424.7,148.1,424.7,147.9,424.7,147.7z"/>
					</g>
					<path class="st11" d="M408.2,128.3c0,0,4.5,8.3,10,7.1c5.6-1.2,5.9-8.5,5.9-8.5L408.2,128.3z"/>
					<path class="st7" d="M431.4,105.4c0,6.3-0.9,11.8-1.8,15.7c-0.9,3.8-3.3,6.5-6.7,8.6l-0.6,0.4c-3.6,2.3-8.3,2.3-12,0.1l0,0
						c-3.7-2.2-6.3-5.1-7.1-9.2c-1.5-7.4-1.6-15.6-1.6-15.6s-1.4-16,14.7-15.7C432.4,90,431.4,105.4,431.4,105.4z"/>
					<g>
						<path class="st7" d="M403.4,120.4c-2.8,2.4-8.8-7.2-6.1-9.8c2.7-2.6,4.7,1.6,4.7,1.6l0.6,3.1l0.8,4.1l0.2,0.9L403.4,120.4z"/>
						<g>
							<g>
								<path class="st1" d="M398.6,113.8c0,0,1.2-2.5,3.9,1.9"/>
							</g>
						</g>
					</g>
					<g>
						<path class="st7" d="M429.7,120.4c2.9,2.4,8.7-7.4,5.9-9.9c-2.8-2.6-4.7,1.7-4.7,1.7l-0.5,3.1l-0.8,4.1l-0.2,0.9L429.7,120.4z
							"/>
						<g>
							<g>
								<path class="st1" d="M434.4,113.8c0,0-1.2-2.5-3.8,2"/>
							</g>
						</g>
					</g>
				</g>
				<g>
					<path class="st12" d="M415.5,113.9l0,1.9c0,0.5,0.4,0.9,0.9,0.8l1.1-0.2"/>
					<path class="st11" d="M418.6,105.2l8.5,2.2c0,0-0.4-2.4-3.9-3.3C419.7,103.2,418.6,105.2,418.6,105.2z"/>
					<path class="st11" d="M413.3,105.2l-8.5,2.2c0,0,0.4-2.4,3.9-3.3C412.1,103.2,413.3,105.2,413.3,105.2z"/>
					<path class="st13" d="M410.5,119.6h11.1c0,0-0.9,3.1-5.6,3.1C412.2,122.7,410.5,119.6,410.5,119.6z"/>
					<path class="st14" d="M407.6,111.1c0,0,1.9-1.3,4,0"/>
					<path class="st14" d="M424.8,111.1c0,0-2-1.3-4.1,0"/>
				</g>
				<g>
					<path class="st11" d="M402.1,112.9c0,0,3.4-11.1,0.9-18.2C403.1,94.7,395.3,98.5,402.1,112.9z"/>
					<path class="st11" d="M430.8,112.9c0,0-4.3-11.1-1.8-18.2C428.9,94.7,436.7,97.6,430.8,112.9z"/>
					<g>
						<path class="st11" d="M402,96.3c0,0,21.5,11,29.8,2.3c0,0,6.8-6.9-0.7-12.2c-7.5-5.3-24.7,4-24.7,4S402.5,91.4,402,96.3z"/>
						<path class="st11" d="M402,96.3c0,0-4-7.1,7.4-10.6c0,0,2.8,2.8-1.2,6.6C404.2,96,402,96.3,402,96.3z"/>
					</g>
				</g>
				<path class="st7" d="M407.9,144.7l-6.8,2.7c0,0,0.9,8,11.2,8c12.2,0,19.1-8.8,19.1-8.8l-8.9-2.5L407.9,144.7z"/>
			</g>
		</g>
	</g>
</g>
</svg>
